<?xml version="1.0" ?><!DOCTYPE svg  PUBLIC '-//W3C//DTD SVG 1.1//EN'  'http://www.w3.org/Graphics/SVG/1.1/DTD/svg11.dtd'><svg enable-background="new 0 0 48 48" height="48px" version="1.1" viewBox="0 0 48 48" width="48px" xml:space="preserve" xmlns="http://www.w3.org/2000/svg" xmlns:xlink="http://www.w3.org/1999/xlink"><g id="Layer_4"><path d="M46.245,10.249c-0.363-0.363-0.77-0.647-1.188-0.897c-0.026-0.022-0.041-0.042-0.074-0.066   c-1.074-0.836-3.372-1.447-5.386-0.471l-0.354-0.355c1.792-3.185-1.058-6.219-1.058-6.219l-0.004,0.034   c-0.14-0.174-0.266-0.355-0.429-0.518c-2.344-2.344-6.149-2.344-8.491,0c-2.346,2.344-2.344,6.147,0,8.493l0.442,0.44l-0.175,0.173   l-0.184,0.184l-0.594,0.594L11.64,28.751l-0.268,0.267l-0.277,0.278l-0.406,0.407l-0.441-0.44   c-2.346-2.347-6.148-2.347-8.491-0.001c-2.346,2.344-2.346,6.144,0,8.49c0.361,0.36,0.768,0.646,1.188,0.895   c0.025,0.022,0.04,0.042,0.073,0.069c1.073,0.835,3.372,1.445,5.386,0.471l0.355,0.354c-1.794,3.183,1.059,6.221,1.059,6.221   l0.002-0.035c0.139,0.174,0.267,0.354,0.429,0.518c2.345,2.343,6.147,2.344,8.491,0c2.345-2.344,2.345-6.148,0-8.492l-0.441-0.441   l0.174-0.174l0.777-0.776L36.36,19.25l0.267-0.27l0.326-0.326l0.356-0.355l0.442,0.44c2.346,2.344,6.147,2.344,8.492,0   C48.589,16.395,48.589,12.593,46.245,10.249z M44.376,16.871c-1.313,1.313-3.442,1.313-4.756,0   c-0.059-0.06-0.103-0.128-0.156-0.191l-0.009,0.008l-2.169-2.169l-1.168,1.168l-0.71,0.709l-0.356,0.356l-0.326,0.327l-0.268,0.268   L17.347,34.458l-0.594,0.595l-0.184,0.182l-0.173,0.174l-0.709,0.709l-1.167,1.168l2.253,2.251   c0.031,0.029,0.068,0.052,0.099,0.084c1.315,1.314,1.315,3.441,0,4.756c-1.313,1.313-3.441,1.313-4.754,0   c-1.086-1.086-1.26-2.729-0.547-4.007c0.062-0.093,0.129-0.18,0.197-0.256l0.264-0.267c0-0.002,0.009-0.009,0.009-0.009   l-0.001-0.002l0.546-0.553l-3.939-3.875l-0.591,0.601h0c-0.126,0.128-0.463,0.417-0.521,0.467   c-1.265,0.652-2.846,0.467-3.906-0.592c-1.313-1.313-1.313-3.443,0-4.756c1.313-1.314,3.442-1.313,4.754,0.002   c0.06,0.058,0.103,0.126,0.156,0.189l0.009-0.01l2.17,2.171l1.167-1.167l0.709-0.708l0.405-0.407l0.278-0.277l0.267-0.268   l17.111-17.111l0.595-0.594l0.183-0.184l0.172-0.173l0.71-0.709l1.169-1.168l-2.252-2.251c-0.032-0.029-0.069-0.051-0.102-0.083   c-1.313-1.312-1.313-3.442,0-4.755s3.442-1.313,4.756,0c0.992,0.992,1.23,2.449,0.723,3.668l0,0   c-0.014,0.041-0.043,0.083-0.063,0.124C36.5,7.51,36.45,7.603,36.397,7.693c-0.14,0.208-0.302,0.387-0.42,0.508l-0.546,0.547   l3.874,3.874l0.584-0.583l0,0c0.168-0.168,0.538-0.471,0.617-0.535c1.261-0.628,2.821-0.438,3.87,0.611   C45.688,13.429,45.688,15.558,44.376,16.871z" fill="#241F20"/></g></svg>